<svg width="398" height="60" viewBox="0 0 398 60" fill="none" xmlns="http://www.w3.org/2000/svg">
<g clip-path="url(#clip0)">
<path d="M150.93 44.7455V17.753C150.93 17.4733 151.003 17.1985 151.143 16.9564C151.283 16.7142 151.484 16.5134 151.727 16.3741C151.969 16.2349 152.244 16.1622 152.524 16.1635C152.803 16.1647 153.078 16.2398 153.319 16.3812L176.432 29.8745C176.671 30.0148 176.87 30.2152 177.008 30.4558C177.145 30.6964 177.218 30.9689 177.218 31.2463C177.218 31.5236 177.145 31.7961 177.008 32.0368C176.87 32.2774 176.671 32.4778 176.432 32.618L153.319 46.1099C153.078 46.2505 152.805 46.3252 152.526 46.3265C152.247 46.3279 151.973 46.2558 151.731 46.1175C151.489 45.9792 151.287 45.7796 151.147 45.5388C151.006 45.298 150.931 45.0243 150.93 44.7455Z" fill="#4E33CF"/>
<path d="M407.095 1.31138H401.862C401.775 1.31554 401.692 1.35306 401.632 1.4162C401.572 1.47934 401.538 1.56326 401.537 1.65063V1.76863C401.532 1.81542 401.536 1.86284 401.55 1.90795C401.563 1.95306 401.586 1.9949 401.616 2.03086C401.647 2.06682 401.684 2.09615 401.727 2.11701C401.769 2.13787 401.815 2.14982 401.862 2.15213H404.044V8.7144C404.044 8.79643 404.077 8.875 404.135 8.933C404.193 8.99101 404.272 9.02377 404.354 9.02415H404.604C404.688 9.02424 404.768 8.99208 404.829 8.93438C404.889 8.87668 404.925 8.79788 404.929 8.7144V2.15213H407.096C407.139 2.15424 407.182 2.14729 407.223 2.13173C407.263 2.11617 407.3 2.09234 407.33 2.06177C407.361 2.03121 407.385 1.99459 407.4 1.95426C407.416 1.91394 407.423 1.8708 407.421 1.82763V1.65063C407.418 1.56376 407.383 1.48098 407.323 1.41832C407.263 1.35565 407.181 1.31754 407.095 1.31138ZM415.217 1.31138C415.173 1.14913 415.114 1.07538 414.937 1.07538H414.819C414.716 1.07538 414.642 1.11963 414.569 1.31138L412.386 7.49015H412.357L410.191 1.31138C410.103 1.11963 410.029 1.07538 409.94 1.07538H409.822C409.646 1.07538 409.587 1.14913 409.542 1.31138L407.832 8.64065C407.788 8.84715 407.861 9.0094 408.083 9.0094H408.363C408.434 9.01143 408.503 8.98911 408.559 8.94617C408.616 8.90322 408.656 8.84224 408.672 8.7734L409.985 3.30263H410.014L412.049 8.9504C412.093 9.11265 412.167 9.1569 412.285 9.1569H412.535C412.639 9.1569 412.712 9.11265 412.771 8.9504L414.791 3.30263H414.821L416.148 8.7734C416.16 8.84457 416.199 8.90845 416.256 8.95222C416.314 8.99599 416.386 9.01642 416.457 9.0094H416.738C416.959 9.0094 417.032 8.84715 416.988 8.64065L415.217 1.31138ZM34.3163 1.32613H1.56291C1.35848 1.32457 1.15575 1.36346 0.966385 1.44056C0.777024 1.51766 0.604767 1.63145 0.45952 1.77538C0.314272 1.91931 0.198901 2.09055 0.120039 2.27924C0.0411778 2.46793 0.000382763 2.67036 0 2.87488L0 57.1106C0.000382763 57.3152 0.0411778 57.5176 0.120039 57.7063C0.198901 57.895 0.314272 58.0662 0.45952 58.2101C0.604767 58.3541 0.777024 58.4678 0.966385 58.5449C1.15575 58.622 1.35848 58.6609 1.56291 58.6594H6.88419C7.29001 58.6444 7.67515 58.4764 7.9623 58.1891C8.24945 57.9019 8.41737 57.5166 8.43236 57.1106V35.5668H30.2925C30.7007 35.5512 31.0877 35.3811 31.3751 35.0908C31.6626 34.8005 31.829 34.4117 31.8407 34.0033V29.4913C31.829 29.0828 31.6626 28.6941 31.3751 28.4038C31.0877 28.1135 30.7007 27.9433 30.2925 27.9278H8.43236V9.02415H34.3163C34.5196 9.02435 34.721 8.98442 34.909 8.90666C35.0969 8.82889 35.2676 8.71482 35.4114 8.57097C35.5552 8.42711 35.6693 8.2563 35.747 8.06831C35.8247 7.88032 35.8646 7.67884 35.8644 7.4754V2.87488C35.8646 2.67144 35.8247 2.46996 35.747 2.28197C35.6693 2.09398 35.5552 1.92317 35.4114 1.77931C35.2676 1.63546 35.0969 1.52139 34.909 1.44362C34.721 1.36586 34.5196 1.32593 34.3163 1.32613ZM92.6896 51.0513H70.4903V2.87488C70.4748 2.46656 70.3047 2.07941 70.0145 1.79185C69.7243 1.50429 69.3357 1.33781 68.9274 1.32613H63.5324C63.1202 1.32534 62.7245 1.48779 62.4316 1.77798C62.1388 2.06818 61.9726 2.46253 61.9695 2.87488V57.1106C61.9699 57.3152 62.0107 57.5176 62.0896 57.7063C62.1684 57.895 62.2838 58.0662 62.429 58.2101C62.5743 58.3541 62.7465 58.4678 62.9359 58.5449C63.1253 58.622 63.328 58.6609 63.5324 58.6594H92.6896C93.1018 58.6602 93.4976 58.4977 93.7904 58.2075C94.0833 57.9173 94.2494 57.523 94.2525 57.1106V52.5986C94.2467 52.1871 94.0797 51.7943 93.7875 51.5047C93.4952 51.2151 93.101 51.0517 92.6896 51.0499V51.0513ZM126.329 1.32613H120.918C120.51 1.33781 120.121 1.50429 119.831 1.79185C119.541 2.07941 119.371 2.46656 119.355 2.87488V57.1106C119.371 57.5189 119.541 57.9061 119.831 58.1937C120.121 58.4812 120.51 58.6477 120.918 58.6594H126.328C126.733 58.6444 127.119 58.4764 127.406 58.1891C127.693 57.9019 127.861 57.5166 127.876 57.1106V2.87488C127.866 2.46744 127.7 2.07935 127.412 1.79103C127.124 1.5027 126.736 1.33624 126.329 1.32613ZM254.382 1.39988C254.234 1.15487 254.032 0.94661 253.792 0.790769C253.552 0.634928 253.28 0.535558 252.996 0.500128H252.185C251.899 0.537049 251.626 0.63691 251.383 0.792504C251.141 0.948099 250.937 1.15555 250.784 1.39988L225.637 56.5369C225.514 56.7654 225.454 57.023 225.465 57.2826C225.476 57.5422 225.556 57.7941 225.698 58.0116C225.84 58.2292 226.038 58.4044 226.272 58.5186C226.505 58.6329 226.765 58.682 227.023 58.6609H232.184C232.583 58.6612 232.974 58.5458 233.309 58.3285C233.644 58.1112 233.909 57.8014 234.071 57.4366L239.068 46.2148H265.843L270.913 57.4366C271.057 57.815 271.317 58.1378 271.656 58.358C271.996 58.5782 272.397 58.6843 272.801 58.6609H277.961C278.22 58.6836 278.481 58.6354 278.715 58.5216C278.949 58.4077 279.148 58.2324 279.29 58.0143C279.433 57.7963 279.513 57.5437 279.523 57.2834C279.533 57.0232 279.472 56.7652 279.347 56.5369L254.382 1.39988ZM242.265 39.1599L252.259 16.7251H252.671L262.746 39.1643H242.265V39.1599ZM319.315 25.6518C312.519 22.8641 308.908 20.0041 308.908 15.3268C308.908 12.2898 311.282 7.95183 318.165 7.95183C322.911 7.95183 326.022 10.0021 329.223 12.0509C329.457 12.2137 329.725 12.3222 330.006 12.3685C330.287 12.4148 330.575 12.3978 330.849 12.3187C331.123 12.2396 331.376 12.1003 331.589 11.9111C331.803 11.7219 331.971 11.4874 332.082 11.2249L334.132 8.11408C334.288 7.90095 334.4 7.65843 334.46 7.40108C334.52 7.14373 334.528 6.87686 334.482 6.6165C334.437 6.35613 334.339 6.10763 334.195 5.88593C334.051 5.66422 333.864 5.47388 333.645 5.32633C329.172 2.27203 323.904 0.594309 318.489 0.500128C305.473 0.500128 300.55 9.26015 300.55 15.6587C300.55 25.1695 307.11 29.506 315.452 33.0298C323.561 36.3913 327.82 39.5036 327.82 44.4138C327.82 48.5866 324.223 52.0381 318.563 52.0381C312.254 52.0381 309.306 49.5749 305.458 46.3903C305.241 46.223 304.99 46.106 304.722 46.0478C304.455 45.9896 304.178 45.9916 303.911 46.0538C303.644 46.1159 303.395 46.2365 303.18 46.407C302.966 46.5774 302.792 46.7934 302.671 47.0393L300.533 50.4009C299.634 51.8021 300.283 52.3626 301.02 53.0264C305.907 57.2552 312.167 59.5568 318.628 59.5001C329.27 59.5001 336.892 52.5396 336.892 44.0126C336.911 34.0033 328.802 29.506 319.315 25.6577V25.6518ZM395.613 1.32613H360.412C360 1.32534 359.604 1.48779 359.311 1.77798C359.019 2.06818 358.852 2.46253 358.849 2.87488V7.46065C358.85 7.66517 358.891 7.8676 358.969 8.05629C359.048 8.24499 359.164 8.41622 359.309 8.56015C359.454 8.70408 359.626 8.81787 359.816 8.89497C360.005 8.97207 360.208 9.01096 360.412 9.0094H373.772V57.0944C373.787 57.5005 373.955 57.886 374.242 58.1733C374.529 58.4606 374.914 58.6285 375.32 58.6432H380.73C381.137 58.6309 381.524 58.4638 381.811 58.176C382.099 57.8882 382.266 57.5013 382.278 57.0944V9.02415H395.634C396.046 9.02494 396.442 8.8625 396.735 8.5723C397.027 8.2821 397.194 7.88775 397.197 7.4754V2.87488C397.19 2.46004 397.02 2.06459 396.723 1.77455C396.427 1.48452 396.028 1.32335 395.613 1.32613ZM185.292 8.61263C190.513 8.71592 195.529 10.6584 199.459 14.0982C200.196 14.8357 200.933 14.8357 201.508 14.0982L205.104 10.4107C205.262 10.2604 205.386 10.0783 205.468 9.87652C205.549 9.67472 205.587 9.45781 205.579 9.24018C205.571 9.02256 205.516 8.80921 205.419 8.6143C205.322 8.41938 205.185 8.24736 205.016 8.10965C199.641 3.11082 192.542 0.384275 185.204 0.500128C180.355 0.488346 175.579 1.6732 171.298 3.9497C167.016 6.22619 163.363 9.52402 160.66 13.5509L168.267 17.9892C170.086 15.1187 172.6 12.7542 175.577 11.115C178.553 9.47589 181.895 8.61514 185.292 8.61263ZM201.418 45.6351C201.136 45.4089 200.782 45.2931 200.421 45.3094C200.06 45.3257 199.717 45.473 199.457 45.7236C195.522 48.7607 191.348 51.1354 185.364 51.1354C182.366 51.1297 179.407 50.4556 176.701 49.1623C173.996 47.869 171.613 45.9889 169.725 43.6586L161.897 48.2311C164.669 51.7591 168.21 54.6079 172.248 56.5607C176.287 58.5135 180.718 59.5188 185.204 59.5001C192.628 59.5848 199.784 56.7272 205.109 51.5514C205.26 51.4119 205.382 51.2441 205.468 51.0574C205.555 50.8708 205.603 50.6689 205.611 50.4634C205.62 50.258 205.587 50.0529 205.516 49.8599C205.445 49.667 205.337 49.4899 205.197 49.3389L201.418 45.6351Z" fill="#232323"/>
</g>
<defs>
<clipPath id="clip0">
<rect width="398" height="59" fill="white" transform="translate(0 0.5)"/>
</clipPath>
</defs>
</svg>
