<svg viewBox="0 0 18 30" fill="none" xmlns="http://www.w3.org/2000/svg">
<path d="M16.6033 0.006242L12.5509 0C7.99813 0 5.05595 2.89785 5.05595 7.38304V10.7871H0.98144C0.629354 10.7871 0.344238 11.0611 0.344238 11.3991V16.3313C0.344238 16.6693 0.629679 16.943 0.98144 16.943H5.05595V29.3883C5.05595 29.7263 5.34107 30 5.69315 30H11.0092C11.3613 30 11.6464 29.726 11.6464 29.3883V16.943H16.4105C16.7626 16.943 17.0477 16.6693 17.0477 16.3313L17.0496 11.3991C17.0496 11.2369 16.9823 11.0814 16.863 10.9666C16.7437 10.8517 16.5812 10.7871 16.4121 10.7871H11.6464V7.90144C11.6464 6.51447 11.9907 5.81037 13.8727 5.81037L16.6026 5.80943C16.9544 5.80943 17.2395 5.53541 17.2395 5.19772V0.617958C17.2395 0.280578 16.9547 0.0068662 16.6033 0.006242Z" fill="#232323"/>
</svg>
