<svg viewBox="0 0 120 60" fill="none" xmlns="http://www.w3.org/2000/svg" class="nav-logo">
<path d="M45.8887 44.5273V16.8536C45.8889 16.5672 45.9649 16.2859 46.1091 16.038C46.2532 15.7901 46.4604 15.5842 46.7099 15.4412C46.9593 15.2981 47.2422 15.2228 47.5302 15.2228C47.8182 15.2229 48.1011 15.2983 48.3505 15.4415L72.2029 29.2783C72.4496 29.4224 72.6542 29.628 72.7963 29.8749C72.9384 30.1218 73.0132 30.4014 73.0132 30.6859C73.0132 30.9704 72.9384 31.2499 72.7963 31.4968C72.6542 31.7437 72.4496 31.9494 72.2029 32.0934L48.3505 45.9302C48.1022 46.076 47.8196 46.1538 47.5313 46.1557C47.243 46.1576 46.9594 46.0835 46.7092 45.9409C46.4591 45.7984 46.2514 45.5925 46.1073 45.3442C45.9631 45.0959 45.8877 44.814 45.8887 44.5273Z" fill="#00BBCA"/>
<path d="M30.7215 1.5955C30.7202 1.38563 30.7609 1.17761 30.8411 0.983489C30.9213 0.789365 31.0394 0.612994 31.1886 0.464595C31.3378 0.316196 31.5152 0.198719 31.7104 0.118968C31.9056 0.0392178 32.1147 -0.00122049 32.3258 -3.85914e-06H59.0088C59.2191 -7.35234e-06 59.4272 0.0413262 59.6214 0.12162C59.8155 0.201913 59.9917 0.319582 60.14 0.467859C60.2882 0.616136 60.4055 0.792096 60.4851 0.985618C60.5648 1.17914 60.6051 1.38641 60.6039 1.5955V6.18027C60.6101 6.39242 60.5734 6.60364 60.496 6.80142C60.4186 6.99921 60.3021 7.17954 60.1533 7.33173C60.0046 7.48393 59.8267 7.60489 59.6301 7.68747C59.4335 7.77004 59.2222 7.81254 59.0088 7.81245H39.5082V57.2088C39.4943 57.6291 39.3196 58.0283 39.0197 58.3248C38.7198 58.6214 38.3174 58.7929 37.8947 58.8043H32.3626C32.1516 58.8055 31.9425 58.7651 31.7473 58.6853C31.5521 58.6056 31.3747 58.4881 31.2255 58.3397C31.0763 58.1913 30.9582 58.0149 30.878 57.8208C30.7978 57.6267 30.7571 57.4187 30.7583 57.2088L30.7215 1.5955Z" fill="#181818"/>
<path d="M75.4115 23.8408C75.5498 23.9142 75.642 24.0334 75.7711 24.1159V1.5955C75.7573 1.17671 75.5838 0.778822 75.2859 0.482534C74.988 0.186246 74.5879 0.0137379 74.1668 -3.85914e-06H68.6347C68.4237 -0.00122049 68.2145 0.0392178 68.0193 0.118968C67.8242 0.198719 67.6468 0.316196 67.4976 0.464595C67.3484 0.612994 67.2302 0.789365 67.1501 0.983489C67.0699 1.17761 67.0292 1.38563 67.0304 1.5955V18.9168L75.4115 23.8408Z" fill="#181818"/>
<path d="M95.2899 50.9919H75.7709V37.2926C75.6419 37.3843 75.5497 37.4943 75.4114 37.5768L66.9842 42.4642V57.2088C66.9829 57.4187 67.0236 57.6267 67.1038 57.8208C67.184 58.0149 67.3021 58.1913 67.4513 58.3397C67.6005 58.4881 67.7779 58.6056 67.9731 58.6853C68.1683 58.7651 68.3774 58.8055 68.5885 58.8043H95.3268C95.5379 58.8055 95.747 58.7651 95.9422 58.6853C96.1374 58.6056 96.3148 58.4881 96.464 58.3397C96.6132 58.1913 96.7313 58.0149 96.8115 57.8208C96.8917 57.6267 96.9324 57.4187 96.9311 57.2088V52.624C96.9362 52.4083 96.8972 52.1938 96.8165 51.9935C96.7358 51.7932 96.6151 51.6113 96.4617 51.4587C96.3083 51.3062 96.1253 51.1861 95.9239 51.1059C95.7225 51.0256 95.5069 50.9868 95.2899 50.9919V50.9919Z" fill="#181818"/>
</svg>
