<svg class="logo__footer" width="208" height="41" viewBox="0 0 208 41" fill="none" xmlns="http://www.w3.org/2000/svg">
<g clip-path="url(#clip0)">
<path d="M57.8091 12.978C57.8091 12.8711 57.8516 12.7687 57.9273 12.6932C58.0029 12.6176 58.1055 12.5752 58.2124 12.5752H66.7324C66.8393 12.5752 66.9419 12.6176 67.0175 12.6932C67.0932 12.7687 67.1357 12.8711 67.1357 12.978V14.1735C67.1357 14.2803 67.0932 14.3828 67.0175 14.4583C66.9419 14.5339 66.8393 14.5763 66.7324 14.5763H59.9983V19.4927H65.689C65.7949 19.4959 65.8956 19.5394 65.9706 19.6142C66.0455 19.6891 66.089 19.7897 66.0923 19.8955V21.0974C66.089 21.2032 66.0455 21.3038 65.9706 21.3787C65.8956 21.4535 65.7949 21.497 65.689 21.5002H59.9983V27.0943C59.9952 27.2007 59.9519 27.3021 59.8771 27.3779C59.8023 27.4538 59.7016 27.4987 59.5951 27.5035H58.2124C58.1589 27.5035 58.1059 27.4928 58.0566 27.4722C58.0072 27.4516 57.9625 27.4213 57.925 27.3832C57.8874 27.3452 57.8579 27.3 57.838 27.2504C57.8181 27.2008 57.8083 27.1477 57.8091 27.0943V12.978Z" fill="#181818"/>
<path d="M73.9209 12.978C73.9209 12.8711 73.9634 12.7687 74.0391 12.6932C74.1147 12.6176 74.2173 12.5752 74.3242 12.5752H75.7261C75.8327 12.5783 75.9341 12.6216 76.0101 12.6963C76.0861 12.771 76.131 12.8716 76.1358 12.978V25.4896H81.8968C82.0038 25.4896 82.1064 25.532 82.182 25.6076C82.2576 25.6831 82.3001 25.7855 82.3001 25.8924V27.0623C82.3056 27.1668 82.2709 27.2694 82.203 27.349C82.1352 27.4287 82.0393 27.4794 81.9352 27.4907H74.3242C74.2707 27.4907 74.2178 27.4801 74.1684 27.4594C74.1191 27.4388 74.0743 27.4085 74.0368 27.3705C73.9992 27.3324 73.9697 27.2872 73.9498 27.2376C73.9299 27.188 73.9201 27.1349 73.9209 27.0815V12.978Z" fill="#181818"/>
<path d="M95.0385 12.3644C96.5594 12.3568 98.0483 12.8002 99.3165 13.6386C100.585 14.477 101.575 15.6725 102.163 17.0737C102.75 18.4749 102.907 20.0186 102.615 21.5093C102.323 23.0001 101.595 24.3706 100.522 25.4474C99.4494 26.5242 98.0808 27.2587 96.5897 27.5578C95.0986 27.857 93.5522 27.7073 92.1463 27.1278C90.7405 26.5483 89.5385 25.565 88.6928 24.3025C87.847 23.0401 87.3955 21.5553 87.3955 20.0363C87.3955 18.0082 88.1995 16.0626 89.6318 14.6249C91.064 13.1873 93.0079 12.3745 95.0385 12.3644ZM95.0385 25.6176C96.1505 25.6341 97.2422 25.3196 98.1746 24.7142C99.107 24.1087 99.8379 23.2398 100.274 22.218C100.71 21.1963 100.832 20.068 100.624 18.9769C100.416 17.8858 99.8868 16.8813 99.105 16.0913C98.3232 15.3014 97.3236 14.7618 96.2336 14.5413C95.1436 14.3208 94.0126 14.4294 92.9846 14.8532C91.9566 15.277 91.0782 15.9969 90.4614 16.9211C89.8445 17.8452 89.517 18.9319 89.5207 20.0427C89.5239 21.5092 90.1043 22.9157 91.1366 23.9587C92.1689 25.0016 93.5703 25.5975 95.0385 25.6176Z" fill="#181818"/>
<path d="M107.783 26.9153L114.325 12.6008C114.363 12.5369 114.415 12.4824 114.477 12.4415C114.539 12.4005 114.61 12.3741 114.684 12.3643H114.895C114.97 12.3736 115.041 12.3998 115.105 12.4408C115.168 12.4817 115.221 12.5364 115.26 12.6008L121.757 26.9153C121.79 26.9752 121.806 27.0429 121.803 27.1111C121.8 27.1793 121.779 27.2454 121.741 27.3025C121.704 27.3596 121.652 27.4055 121.59 27.4352C121.529 27.465 121.46 27.4775 121.392 27.4715H120.054C119.949 27.4762 119.845 27.4479 119.757 27.3906C119.668 27.3332 119.6 27.2498 119.561 27.1519L118.243 24.2365H111.278L109.998 27.1519C109.955 27.2467 109.886 27.3272 109.799 27.3839C109.711 27.4406 109.609 27.471 109.505 27.4715H108.18C108.11 27.4844 108.037 27.4769 107.97 27.45C107.904 27.423 107.846 27.3777 107.805 27.3194C107.763 27.261 107.739 27.192 107.735 27.1205C107.731 27.0489 107.748 26.9778 107.783 26.9153ZM117.43 22.4081L114.812 16.5774H114.709L112.11 22.4081H117.43Z" fill="#181818"/>
<path d="M129.669 14.5763H126.199C126.092 14.5763 125.989 14.5341 125.912 14.4587C125.835 14.3834 125.791 14.2809 125.79 14.1735V12.978C125.791 12.8706 125.835 12.7681 125.912 12.6928C125.989 12.6174 126.092 12.5752 126.199 12.5752H135.36C135.467 12.5752 135.569 12.6176 135.645 12.6932C135.72 12.7687 135.763 12.8711 135.763 12.978V14.1735C135.763 14.2803 135.72 14.3828 135.645 14.4583C135.569 14.5339 135.467 14.5763 135.36 14.5763H131.865V27.0623C131.861 27.1688 131.818 27.2701 131.743 27.346C131.669 27.4219 131.568 27.4667 131.461 27.4715H130.053C129.946 27.4667 129.846 27.4219 129.771 27.346C129.696 27.2701 129.653 27.1688 129.65 27.0623L129.669 14.5763Z" fill="#181818"/>
<path d="M151.868 12.978C151.868 12.8711 151.911 12.7687 151.986 12.6932C152.062 12.6176 152.164 12.5752 152.271 12.5752H153.68C153.786 12.5784 153.886 12.6219 153.961 12.6967C154.036 12.7716 154.08 12.8722 154.083 12.978V25.4896H159.844C159.951 25.4896 160.054 25.532 160.129 25.6076C160.205 25.6831 160.247 25.7855 160.247 25.8924V27.0623C160.247 27.1698 160.205 27.2729 160.13 27.3494C160.054 27.426 159.952 27.4698 159.844 27.4715H152.271C152.164 27.4698 152.061 27.426 151.986 27.3494C151.91 27.2729 151.868 27.1698 151.868 27.0623V12.978Z" fill="#181818"/>
<path d="M166.789 12.978C166.789 12.8711 166.832 12.7687 166.907 12.6932C166.983 12.6176 167.085 12.5752 167.192 12.5752H175.712C175.819 12.5752 175.922 12.6176 175.998 12.6932C176.073 12.7687 176.116 12.8711 176.116 12.978V14.1735C176.116 14.2803 176.073 14.3828 175.998 14.4583C175.922 14.5339 175.819 14.5763 175.712 14.5763H168.991V18.9173H174.682C174.788 18.9205 174.888 18.964 174.963 19.0388C175.038 19.1137 175.082 19.2143 175.085 19.3201V20.5092C175.085 20.6167 175.043 20.7198 174.967 20.7963C174.892 20.8729 174.789 20.9167 174.682 20.9184H168.991V25.4896H175.712C175.819 25.4896 175.922 25.532 175.998 25.6076C176.073 25.6831 176.116 25.7855 176.116 25.8924V27.0623C176.116 27.1158 176.107 27.1688 176.087 27.2184C176.067 27.268 176.037 27.3132 176 27.3513C175.962 27.3894 175.918 27.4196 175.868 27.4402C175.819 27.4609 175.766 27.4715 175.712 27.4715H167.192C167.139 27.4715 167.086 27.4609 167.037 27.4402C166.987 27.4196 166.942 27.3894 166.905 27.3513C166.867 27.3132 166.838 27.268 166.818 27.2184C166.798 27.1688 166.788 27.1158 166.789 27.0623V12.978Z" fill="#181818"/>
<path d="M183.304 12.978C183.304 12.8711 183.347 12.7687 183.422 12.6932C183.498 12.6176 183.601 12.5752 183.707 12.5752H192.227C192.334 12.5752 192.437 12.6176 192.513 12.6932C192.588 12.7687 192.631 12.8711 192.631 12.978V14.1735C192.631 14.2803 192.588 14.3828 192.513 14.4583C192.437 14.5339 192.334 14.5763 192.227 14.5763H185.493V19.4927H191.184C191.291 19.4958 191.392 19.5391 191.468 19.6138C191.544 19.6885 191.589 19.7891 191.594 19.8955V21.0974C191.589 21.2038 191.544 21.3044 191.468 21.3791C191.392 21.4538 191.291 21.4971 191.184 21.5002H185.493V27.0943C185.492 27.2012 185.449 27.3034 185.374 27.3796C185.299 27.4558 185.197 27.5002 185.09 27.5035H183.714C183.606 27.5018 183.504 27.4579 183.428 27.3814C183.353 27.3048 183.311 27.2017 183.311 27.0943L183.304 12.978Z" fill="#181818"/>
<path d="M201.913 14.5763H198.437C198.33 14.5763 198.227 14.5339 198.152 14.4583C198.076 14.3828 198.033 14.2803 198.033 14.1735V12.978C198.033 12.8711 198.076 12.7687 198.152 12.6932C198.227 12.6176 198.33 12.5752 198.437 12.5752H207.597C207.704 12.5752 207.806 12.6176 207.882 12.6932C207.958 12.7687 208 12.8711 208 12.978V14.1735C208 14.2803 207.958 14.3828 207.882 14.4583C207.806 14.5339 207.704 14.5763 207.597 14.5763H204.127V27.0623C204.124 27.1698 204.08 27.2721 204.004 27.3481C203.928 27.4241 203.825 27.4683 203.718 27.4715H202.316C202.209 27.4682 202.107 27.4239 202.032 27.3477C201.957 27.2714 201.914 27.1693 201.913 27.0623V14.5763Z" fill="#181818"/>
<path d="M10.53 31.0457V11.7508C10.5302 11.5511 10.583 11.355 10.6831 11.1821C10.7831 11.0093 10.927 10.8658 11.1002 10.766C11.2733 10.6662 11.4698 10.6137 11.6697 10.6138C11.8696 10.6138 12.066 10.6664 12.2392 10.7662L28.8054 20.4137C28.9767 20.5141 29.1187 20.6575 29.2174 20.8296C29.316 21.0018 29.3679 21.1967 29.3679 21.395C29.3679 21.5934 29.316 21.7883 29.2174 21.9604C29.1187 22.1326 28.9767 22.276 28.8054 22.3764L12.2392 32.0238C12.0668 32.1255 11.8706 32.1797 11.6704 32.181C11.4703 32.1823 11.2734 32.1307 11.0997 32.0313C10.9261 31.9319 10.7819 31.7883 10.6818 31.6152C10.5817 31.4421 10.5294 31.2456 10.53 31.0457Z" fill="#00BBCA"/>
<path d="M2.12772e-05 1.11245C-0.000828045 0.966123 0.0274016 0.821086 0.0830747 0.685737C0.138748 0.550388 0.220758 0.427418 0.324354 0.32395C0.42795 0.220482 0.551073 0.138574 0.686589 0.0829693C0.822106 0.027365 0.967323 -0.000829685 1.11383 1.8587e-05H19.6773C19.8232 1.61515e-05 19.9677 0.0288351 20.1025 0.0848179C20.2373 0.140801 20.3597 0.222843 20.4626 0.326226C20.5655 0.429609 20.6469 0.552293 20.7022 0.687222C20.7575 0.822151 20.7855 0.966663 20.7847 1.11245V4.30908C20.789 4.45917 20.7628 4.60858 20.7075 4.74821C20.6522 4.88784 20.569 5.01475 20.463 5.12123C20.357 5.2277 20.2304 5.31151 20.0909 5.36753C19.9514 5.42355 19.8019 5.45062 19.6516 5.44708H6.10035V39.8876C6.09067 40.1807 5.96935 40.459 5.76116 40.6657C5.55297 40.8725 5.27362 40.992 4.98014 41H1.13943C0.990794 41.0043 0.842812 40.9787 0.704313 40.9246C0.565814 40.8706 0.439634 40.7892 0.3333 40.6854C0.226965 40.5816 0.142653 40.4574 0.0853939 40.3203C0.0281343 40.1833 -0.000900461 40.0361 2.12772e-05 39.8876V1.11245Z" fill="#181818"/>
<path d="M31.0265 16.6225C31.1225 16.6737 31.1865 16.7568 31.2761 16.8143V1.11245C31.2665 0.820455 31.1461 0.543038 30.9392 0.336457C30.7324 0.129877 30.4546 0.00959972 30.1623 1.8587e-05H26.3216C26.1751 -0.000829685 26.0299 0.027365 25.8943 0.0829693C25.7588 0.138574 25.6357 0.220482 25.5321 0.32395C25.4285 0.427418 25.3465 0.550388 25.2908 0.685737C25.2352 0.821086 25.2069 0.966123 25.2078 1.11245V13.1893L31.0265 16.6225Z" fill="#181818"/>
<path d="M44.8082 35.553H31.2761V26.0015C31.1865 26.0654 31.1225 26.1421 31.0265 26.1997L25.1758 29.6073V39.8876C25.175 40.034 25.2032 40.179 25.2589 40.3143C25.3145 40.4497 25.3965 40.5727 25.5001 40.6761C25.6037 40.7796 25.7269 40.8615 25.8624 40.9171C25.9979 40.9727 26.1431 41.0009 26.2896 41.0001H44.8082C44.9547 41.0009 45.0999 40.9727 45.2355 40.9171C45.371 40.8615 45.4941 40.7796 45.5977 40.6761C45.7013 40.5727 45.7833 40.4497 45.839 40.3143C45.8947 40.179 45.9229 40.034 45.922 39.8876V36.691C45.9254 36.5428 45.8992 36.3954 45.8447 36.2574C45.7903 36.1195 45.7088 35.9938 45.605 35.8878C45.5012 35.7818 45.3773 35.6976 45.2405 35.6401C45.1036 35.5826 44.9567 35.553 44.8082 35.553Z" fill="#181818"/>
</g>
<defs>
<clipPath id="clip0">
<rect width="208" height="41" fill="white"/>
</clipPath>
</defs>
</svg>
