<svg width="519" height="53" viewBox="0 0 519 53" fill="none" xmlns="http://www.w3.org/2000/svg">
<path d="M0 2.09942C0 1.73175 0.146899 1.37916 0.408382 1.11918C0.669864 0.859204 1.02451 0.713135 1.3943 0.713135H30.7543C31.1172 0.723446 31.4617 0.874062 31.7146 1.13293C31.9675 1.3918 32.1089 1.73851 32.1088 2.09942V6.06023C32.1089 6.42114 31.9675 6.76788 31.7146 7.02675C31.4617 7.28562 31.1172 7.43623 30.7543 7.44655H7.56907V24.28H27.169C27.5286 24.2998 27.8675 24.4533 28.1185 24.7102C28.3694 24.967 28.514 25.3084 28.5234 25.6663V29.6271C28.514 29.9851 28.3694 30.3264 28.1185 30.5832C27.8675 30.8401 27.5286 30.9936 27.169 31.0134H7.56907V50.1838C7.55902 50.5483 7.4089 50.8951 7.14956 51.153C6.89022 51.4108 6.54139 51.5601 6.17477 51.5701H1.3943C1.05657 51.5735 0.729054 51.4549 0.472612 51.2364C0.21617 51.0178 0.0482329 50.7142 0 50.3818L0 2.09942Z" fill="#181818"/>
<path d="M55.7721 2.09941C55.7721 1.73175 55.919 1.37916 56.1805 1.11918C56.442 0.859204 56.7967 0.713135 57.1664 0.713135H62.0266C62.3902 0.732199 62.7338 0.884373 62.9912 1.14034C63.2487 1.3963 63.4017 1.73793 63.4209 2.09941V44.9951H83.3395C83.7093 44.9951 84.0639 45.1411 84.3254 45.4011C84.5869 45.6611 84.7338 46.0137 84.7338 46.3814V50.3422C84.7338 50.7098 84.5869 51.0625 84.3254 51.3224C84.0639 51.5824 83.7093 51.7285 83.3395 51.7285H57.0071C56.6373 51.7285 56.2827 51.5824 56.0212 51.3224C55.7597 51.0625 55.6128 50.7098 55.6128 50.3422L55.7721 2.09941Z" fill="#181818"/>
<path d="M128.475 0.000268816C133.702 -0.0232416 138.819 1.49589 143.177 4.36532C147.535 7.23474 150.939 11.3254 152.958 16.1194C154.976 20.9134 155.519 26.1951 154.516 31.2958C153.514 36.3965 151.012 41.0868 147.327 44.7728C143.642 48.4588 138.94 50.9748 133.816 52.0022C128.692 53.0296 123.376 52.5222 118.542 50.5442C113.709 48.5663 109.574 45.2067 106.661 40.8909C103.749 36.5751 102.19 31.4972 102.182 26.3001C102.167 22.8553 102.835 19.4413 104.149 16.2537C105.462 13.0661 107.396 10.1677 109.839 7.72451C112.281 5.2813 115.185 3.34135 118.383 2.01588C121.581 0.690407 125.01 0.00544486 128.475 0.000268816V0.000268816ZM128.475 45.4308C133.442 45.2064 138.131 43.0865 141.567 39.5123C145.002 35.938 146.919 31.1845 146.919 26.2407C146.919 21.2968 145.002 16.5434 141.567 12.9691C138.131 9.39483 133.442 7.27494 128.475 7.05051C123.508 7.27494 118.819 9.39483 115.383 12.9691C111.948 16.5434 110.031 21.2968 110.031 26.2407C110.031 31.1845 111.948 35.938 115.383 39.5123C118.819 43.0865 123.508 45.2064 128.475 45.4308V45.4308Z" fill="#181818"/>
<path d="M172.535 49.8672L195.203 0.79267C195.334 0.575885 195.514 0.391817 195.728 0.254536C195.942 0.117256 196.185 0.0303681 196.437 0.000488281H197.155C197.413 0.0302586 197.661 0.1168 197.882 0.253811C198.102 0.390822 198.289 0.57489 198.429 0.79267L220.778 49.8672C220.897 50.0696 220.958 50.3009 220.953 50.5355C220.948 50.77 220.877 50.9986 220.749 51.1957C220.621 51.3928 220.441 51.5506 220.228 51.6517C220.015 51.7529 219.778 51.7932 219.543 51.7684H214.802C214.445 51.7915 214.09 51.7002 213.789 51.5077C213.487 51.3152 213.256 51.0317 213.129 50.6989L208.548 40.6781H184.646L180.184 50.6989C180.038 51.0184 179.803 51.2893 179.506 51.479C179.209 51.6687 178.864 51.7692 178.511 51.7684H173.81C173.576 51.7871 173.342 51.7435 173.131 51.6419C172.92 51.5403 172.74 51.3845 172.61 51.1906C172.48 50.9967 172.405 50.7717 172.391 50.539C172.378 50.3063 172.428 50.0744 172.535 49.8672V49.8672ZM205.799 34.42L196.756 14.6159H196.398L187.434 34.42H205.799Z" fill="#181818"/>
<path d="M248.066 7.68442H236.115C235.745 7.68442 235.391 7.53835 235.129 7.27838C234.868 7.0184 234.721 6.66581 234.721 6.29814V2.33733C234.721 1.96966 234.868 1.61705 235.129 1.35707C235.391 1.09709 235.745 0.95105 236.115 0.95105H267.666C268.036 0.95105 268.391 1.09709 268.652 1.35707C268.913 1.61705 269.06 1.96966 269.06 2.33733V6.29814C269.06 6.66581 268.913 7.0184 268.652 7.27838C268.391 7.53835 268.036 7.68442 267.666 7.68442H255.715V50.382C255.705 50.7465 255.555 51.0934 255.295 51.3512C255.036 51.609 254.687 51.7583 254.321 51.7683H249.46C249.094 51.7583 248.745 51.609 248.486 51.3512C248.226 51.0934 248.076 50.7465 248.066 50.382V7.68442Z" fill="#181818"/>
<path d="M324.713 2.09941C324.713 1.73175 324.86 1.37916 325.122 1.11918C325.383 0.859204 325.738 0.713135 326.107 0.713135H330.968C331.331 0.732199 331.675 0.884373 331.932 1.14034C332.19 1.3963 332.343 1.73793 332.362 2.09941V44.9951H352.281C352.65 44.9951 353.005 45.1411 353.266 45.4011C353.528 45.6611 353.675 46.0137 353.675 46.3814V50.3422C353.675 50.7098 353.528 51.0625 353.266 51.3224C353.005 51.5824 352.65 51.7285 352.281 51.7285H326.107C325.738 51.7285 325.383 51.5824 325.122 51.3224C324.86 51.0625 324.713 50.7098 324.713 50.3422V2.09941Z" fill="#181818"/>
<path d="M376.223 2.09941C376.233 1.72815 376.389 1.37557 376.657 1.11667C376.924 0.857775 377.283 0.712992 377.657 0.713135H406.977C407.347 0.713135 407.701 0.859204 407.963 1.11918C408.224 1.37916 408.371 1.73175 408.371 2.09941V6.06023C408.371 6.42789 408.224 6.78051 407.963 7.04049C407.701 7.30047 407.347 7.44654 406.977 7.44654H383.792V22.3392H403.392C403.755 22.3582 404.099 22.5104 404.356 22.7664C404.614 23.0223 404.767 23.364 404.786 23.7255V27.6863C404.786 28.054 404.639 28.4066 404.378 28.6665C404.116 28.9265 403.761 29.0726 403.392 29.0726H383.792V44.9158H406.977C407.347 44.9158 407.701 45.0619 407.963 45.3219C408.224 45.5818 408.371 45.9345 408.371 46.3021V50.2629C408.371 50.6306 408.224 50.9832 407.963 51.2432C407.701 51.5032 407.347 51.6492 406.977 51.6492H377.657C377.47 51.6545 377.285 51.6226 377.111 51.5553C376.937 51.488 376.779 51.3867 376.645 51.2575C376.511 51.1282 376.405 50.9736 376.332 50.8028C376.26 50.6319 376.223 50.4484 376.223 50.2629V2.09941Z" fill="#181818"/>
<path d="M433.269 2.09942C433.269 1.73175 433.416 1.37916 433.678 1.11918C433.939 0.859204 434.294 0.713135 434.664 0.713135H463.984C464.354 0.713135 464.708 0.859204 464.97 1.11918C465.231 1.37916 465.378 1.73175 465.378 2.09942V6.06023C465.378 6.4279 465.231 6.78052 464.97 7.0405C464.708 7.30048 464.354 7.44654 463.984 7.44654H440.799V24.28H460.399C460.762 24.2991 461.106 24.4513 461.363 24.7072C461.621 24.9632 461.774 25.3048 461.793 25.6663V29.6271C461.774 29.9886 461.621 30.3302 461.363 30.5862C461.106 30.8422 460.762 30.9943 460.399 31.0134H440.799V50.1838C440.799 50.5447 440.657 50.8914 440.405 51.1503C440.152 51.4091 439.807 51.5597 439.444 51.5701H434.664C434.294 51.5701 433.939 51.424 433.678 51.164C433.416 50.904 433.269 50.5514 433.269 50.1838V2.09942Z" fill="#181818"/>
<path d="M497.487 7.68442H485.536C485.166 7.68442 484.812 7.53835 484.55 7.27838C484.289 7.0184 484.142 6.66581 484.142 6.29814V2.33733C484.142 1.96966 484.289 1.61705 484.55 1.35707C484.812 1.09709 485.166 0.95105 485.536 0.95105H517.087C517.457 0.95105 517.811 1.09709 518.073 1.35707C518.334 1.61705 518.481 1.96966 518.481 2.33733V6.29814C518.481 6.66581 518.334 7.0184 518.073 7.27838C517.811 7.53835 517.457 7.68442 517.087 7.68442H505.136V50.382C505.136 50.7497 504.989 51.1023 504.727 51.3623C504.466 51.6222 504.111 51.7683 503.742 51.7683H498.881C498.519 51.758 498.174 51.6074 497.921 51.3485C497.668 51.0896 497.527 50.7429 497.527 50.382L497.487 7.68442Z" fill="#181818"/>
</svg>
