<svg viewBox="0 0 32 30" fill="none" xmlns="http://www.w3.org/2000/svg">
<path d="M22.1515 0H10.4327C5.04006 0 0.666992 4.19813 0.666992 9.375V20.625C0.666992 25.8019 5.04006 30 10.4327 30H22.1515C27.5441 30 31.9171 25.8019 31.9171 20.625V9.375C31.9171 4.19813 27.5441 0 22.1515 0ZM28.9874 20.625C28.9874 24.2437 25.921 27.1875 22.1515 27.1875H10.4327C6.66311 27.1875 3.59669 24.2437 3.59669 20.625V9.375C3.59669 5.75625 6.66311 2.8125 10.4327 2.8125H22.1515C25.921 2.8125 28.9874 5.75625 28.9874 9.375V20.625Z" fill="#232323"/>
<path d="M16.2919 7.5C11.9775 7.5 8.47949 10.8581 8.47949 15C8.47949 19.1419 11.9775 22.5 16.2919 22.5C20.6064 22.5 24.1044 19.1419 24.1044 15C24.1044 10.8581 20.6064 7.5 16.2919 7.5ZM16.2919 19.6875C13.6005 19.6875 11.4092 17.5837 11.4092 15C11.4092 12.4144 13.6005 10.3125 16.2919 10.3125C18.9833 10.3125 21.1747 12.4144 21.1747 15C21.1747 17.5837 18.9833 19.6875 16.2919 19.6875Z" fill="#232323"/>
<path d="M24.6904 7.93723C25.2654 7.93723 25.7314 7.48979 25.7314 6.93785C25.7314 6.38591 25.2654 5.93848 24.6904 5.93848C24.1155 5.93848 23.6494 6.38591 23.6494 6.93785C23.6494 7.48979 24.1155 7.93723 24.6904 7.93723Z" fill="#232323"/>
</svg>
