<svg viewBox="0 0 32 30" fill="none" xmlns="http://www.w3.org/2000/svg">
<path d="M10.4331 24.7852H6.16061V11.543H10.4331V24.7852ZM10.8593 7.32399C10.8593 5.99808 9.73878 4.92188 8.35835 4.92188C6.97266 4.92188 5.85496 5.99808 5.85496 7.32399C5.85496 8.65036 6.97266 9.72656 8.35835 9.72656C9.73878 9.72656 10.8593 8.65036 10.8593 7.32399ZM26.4237 17.4998C26.4237 13.9451 25.6415 11.3086 21.3159 11.3086C19.2373 11.3086 17.8421 12.3065 17.2725 13.3443H17.2685V11.543H13.1181V24.7852H17.2685V18.2103C17.2685 16.4884 17.7251 14.8203 19.9483 14.8203C22.1413 14.8203 22.2123 16.7894 22.2123 18.3197V24.7852H26.4237V17.4998ZM31.9169 26.4844V3.51562C31.9169 1.577 30.2742 0 28.2548 0H4.32909C2.30969 0 0.666992 1.577 0.666992 3.51562V26.4844C0.666992 28.423 2.30969 30 4.32909 30H28.2548C30.2742 30 31.9169 28.423 31.9169 26.4844ZM28.2548 2.34375C28.9278 2.34375 29.4755 2.86949 29.4755 3.51562V26.4844C29.4755 27.1305 28.9278 27.6562 28.2548 27.6562H4.32909C3.65603 27.6562 3.10839 27.1305 3.10839 26.4844V3.51562C3.10839 2.86949 3.65603 2.34375 4.32909 2.34375H28.2548Z" fill="#232323"/>
</svg>
