<svg viewBox="0 0 32 26" fill="none" xmlns="http://www.w3.org/2000/svg">
<path d="M10.5784 24.6551C10.5784 25.5238 9.90003 25.8826 9.14873 25.5238L1.03938 21.6326C0.794594 21.5213 0.588866 21.3351 0.420897 21.0738C0.252929 20.8126 0.166992 20.5526 0.166992 20.2963V1.26256C0.166992 0.552565 0.611001 0.231315 1.6149 0.711315L10.5263 4.98631C10.6552 5.11006 10.5602 4.26006 10.5784 24.6551ZM11.6943 6.75506L21.0068 21.2151L11.6943 16.7738V6.75506ZM31.4169 7.05631V24.6551C31.4169 24.9338 31.3361 25.1588 31.1721 25.3313C31.0093 25.5038 30.788 25.5901 30.5093 25.5901C30.2307 25.5901 29.9572 25.5176 29.6903 25.3726L22.0002 21.6988L31.4169 7.05631ZM31.3648 5.05256C31.3648 5.08631 29.8739 7.42131 26.8921 12.0563C23.9104 16.6913 22.163 19.4063 21.6513 20.1963L14.8505 9.61006L20.5002 0.811315C20.8075 0.326315 21.4377 0.241315 21.8609 0.443815L31.2958 4.95256C31.3413 4.97381 31.3648 5.00756 31.3648 5.05256Z" fill="#232323"/>
</svg>
