<svg viewBox="0 0 32 26" fill="none" xmlns="http://www.w3.org/2000/svg">
<path d="M31.9169 3.69813C30.7548 4.1875 29.5165 4.51187 28.2255 4.66937C29.5536 3.90812 30.5673 2.71187 31.0438 1.27C29.8056 1.97875 28.4384 2.47938 26.9813 2.75875C25.8056 1.55688 24.1298 0.8125 22.3017 0.8125C18.7548 0.8125 15.8994 3.57625 15.8994 6.96438C15.8994 7.45188 15.9423 7.92062 16.0478 8.36687C10.7216 8.1175 6.00877 5.66688 2.84276 1.93375C2.29003 2.85438 1.96582 3.90812 1.96582 5.0425C1.96582 7.1725 3.10839 9.06063 4.81151 10.1537C3.78221 10.135 2.77245 9.84813 1.91699 9.39625C1.91699 9.415 1.91699 9.43937 1.91699 9.46375C1.91699 12.4525 4.13768 14.935 7.04978 15.5069C6.5283 15.6438 5.95994 15.7094 5.3701 15.7094C4.95994 15.7094 4.54588 15.6869 4.15721 15.6044C4.98729 18.04 7.34275 19.8306 10.1435 19.8888C7.96384 21.5256 5.19627 22.5119 2.20019 22.5119C1.6748 22.5119 1.1709 22.4894 0.666992 22.4275C3.50487 24.1844 6.86814 25.1875 10.4951 25.1875C22.2841 25.1875 28.7294 15.8125 28.7294 7.68625C28.7294 7.41437 28.7196 7.15188 28.7059 6.89125C29.9774 6.025 31.0458 4.94313 31.9169 3.69813Z" fill="#232323"/>
</svg>
